# xmcd CD database file
#
# Track frame offsets:
#	150
#	24646
#	50159
#	89179
#
# Disc length: 1422 seconds
#
# Revision: 0
# Processed by: cddbd v1.5.1PL0 Copyright (c) Steve Scherf et al.
# Submitted via: CDex 1.51
#
DISCID=36058c04
DTITLE=Victorine - Victorine EP
DYEAR=2004
DGENRE=Jazz
TTITLE0=Endless Story
TTITLE1=For You
TTITLE2=There's No Need (instrumental)
TTITLE3=Sunrise (instrumental)
EXTD=YEAR: 2004
EXTT0=
EXTT1=
EXTT2=
EXTT3=
PLAYORDER=
